<?xml version="1.0" encoding="utf-8"?>
<!-- Generator: Adobe Illustrator 23.0.1, SVG Export Plug-In . SVG Version: 6.00 Build 0)  -->
<svg version="1.1" id="Layer_1" xmlns="http://www.w3.org/2000/svg" xmlns:xlink="http://www.w3.org/1999/xlink" x="0px" y="0px"
	 viewBox="0 0 1080 1080" style="enable-background:new 0 0 1080 1080;" xml:space="preserve">
<style type="text/css">
	.st0{fill:#FB7EBD;}
	.st1{fill:#FC83BE;}
	.st2{fill:#FC88C0;}
	.st3{fill:#FED9DB;}
	.st4{fill:#F80293;}
	.st5{fill:#FDBFDD;}
	.st6{fill:#FCAAD3;}
	.st7{fill:#FC98C5;}
	.st8{fill:#FB6FB7;}
	.st9{fill:#FC9CC7;}
	.st10{fill:#FB6AB6;}
	.st11{fill:#FA3EA7;}
	.st12{fill:#FA56AF;}
	.st13{fill:#FC93C4;}
	.st14{fill:#FDACCC;}
	.st15{fill:#FB5EB2;}
	.st16{fill:#F931A3;}
	.st17{fill:#FDB1CD;}
	.st18{fill:#FA4EAC;}
	.st19{fill:#FA49AB;}
	.st20{fill:#FC8BC1;}
	.st21{fill:#FB7ABB;}
	.st22{fill:#FC8FC2;}
	.st23{fill:#FB77BA;}
	.st24{fill:#FB73B9;}
	.st25{fill:#F91C9C;}
	.st26{fill:#FDA7CB;}
	.st27{fill:#FA39A5;}
	.st28{fill:#F936A4;}
	.st29{fill:#FA52AE;}
	.st30{fill:#FA46AA;}
	.st31{fill:#FCA3C9;}
	.st32{fill:#FA42A8;}
	.st33{fill:#FA5AB0;}
	.st34{fill:#FB62B3;}
	.st35{fill:#FDC5D4;}
	.st36{fill:#FB65B4;}
	.st37{fill:#F9169A;}
	.st38{fill:#F929A0;}
	.st39{fill:#F9259F;}
	.st40{fill:#FCA0C8;}
	.st41{fill:#FECAD6;}
	.st42{fill:#FDC0D3;}
	.st43{fill:#FDB6CF;}
	.st44{fill:#F9219D;}
	.st45{fill:#FDBCD1;}
	.st46{fill:#F81098;}
	.st47{fill:#FDB9D0;}
	.st48{fill:#FED5DA;}
	.st49{fill:#F80D97;}
	.st50{fill:#FED1D8;}
	.st51{fill:#F80895;}
	.st52{fill:#F92DA1;}
	.st53{fill:#FECED7;}
	.st54{fill:#F91399;}
	.st55{fill:#F80594;}
	.st56{fill:#FFFFFF;}
	.st57{font-family:'Raleway-ExtraLight';}
	.st58{font-size:242px;}
	.st59{font-family:'Raleway-Light';}
	.st60{font-size:191px;}
</style>
<g>
	<path class="st0" d="M481.51,596.43c-7.59,0-15.18,0-22.77,0c-4.11-4.74-2.82-10.53-2.83-15.93
		c-0.08-104.11-0.06-208.22-0.06-312.33c0-59.49-0.03-118.98,0.04-178.47c0.01-5.16-0.94-10.6,2.83-15.1c5.26,0,10.51,0,15.77,0
		c2.49,2.09,6.94-0.7,8.6,3.47c1.61,4.22,1.25,8.64,1.25,12.99c0.03,163.43,0.03,326.87-0.03,490.3
		C484.31,586.48,485.44,591.97,481.51,596.43z"/>
	<path class="st1" d="M458.72,74.59c0,173.95,0.01,347.89,0.01,521.84c-7.59,0-15.18,0-22.78,0c-4.1-4.74-2.82-10.53-2.83-15.93
		c-0.08-104.69-0.06-209.39-0.06-314.08c0-58.91-0.02-117.82,0.04-176.72c0.01-5.16-0.91-10.6,2.83-15.11c0.58,0,1.17,0,1.75,0
		c3.5,1.43,7.01,1.43,10.51,0C451.71,74.59,455.22,74.59,458.72,74.59z"/>
	<path class="st2" d="M435.94,74.59c0,173.95,0.01,347.9,0.01,521.84c-5.26,0-10.51,0-15.77,0c-4.1-4.75-2.81-10.54-2.81-15.94
		c-0.08-111.73-0.06-223.47-0.06-335.2c0-51.34-0.07-102.69,0.1-154.03c0.02-5.44-1.82-12.21,6.13-14.54
		c2.85-1.19,6.54,1.1,8.9-2.14C433.61,74.59,434.78,74.59,435.94,74.59z"/>
	<path class="st3" d="M29.47,389.96c5.7-3,5.9-8.63,7.08-14.02c2.79-12.74,7.1-24.9,15.64-35.12c5.49,3.02,4.55,8.43,4.58,13.21
		c0.18,27.71,0.08,55.41,0.08,83.12c0,48.41,0.03,96.83-0.04,145.24c-0.01,4.87,0.83,10.02-2.81,14.22
		c-8.18,0.03-16.36,0.05-24.54,0.08C29.47,527.79,29.47,458.87,29.47,389.96z"/>
	<path class="st4" d="M1048.92,347.97c8.29,10.96,10.69,24.48,16.01,36.73c0,70.67,0,141.33,0,212c-5.84-0.1-11.68-0.19-17.52-0.29
		c-3.22-3.29-2.81-7.53-2.81-11.56c-0.07-74.95-0.09-149.9,0.05-224.85C1044.66,355.71,1043.22,350.44,1048.92,347.97z"/>
	<path class="st5" d="M448.21,74.59c-3.5,2.46-7.01,2.83-10.51,0C441.2,74.59,444.7,74.59,448.21,74.59z"/>
	<path class="st6" d="M481.51,76.53c-2.38-0.51-5.2,0.6-7.03-1.93c3.5,0,7.01,0,10.51,0c-0.01,0.55,0.04,1.09,0.15,1.63
		C484.02,77.28,482.81,77.41,481.51,76.53z"/>
	<path class="st7" d="M341.35,95.84c7.29-3.76,14.76-7.05,22.75-9.02c3.36,2.56,3.9,6.35,4.33,10.14c0.39,3.49,0.29,7,0.29,10.5
		c0.01,157.68,0.02,315.35-0.05,473.03c0,5.41,1.28,11.2-2.8,15.97c-8.18,0-16.35,0-24.53,0.01c-4.09-4.75-2.82-10.54-2.83-15.96
		c-0.08-113.28-0.06-226.57-0.06-339.85c0-43.21-0.01-86.42,0.02-129.63C338.48,105.81,337.93,100.44,341.35,95.84z"/>
	<path class="st8" d="M537.59,90.35c6.93,1.69,13.45,4.34,19.39,8.33c2.81,3.79,2.71,8.21,2.71,12.59
		c0.03,157.57,0.03,315.14-0.03,472.7c0,4.3,0.59,8.86-2.82,12.44c-7.59,0-15.18,0-22.78,0c-4.11-4.74-2.82-10.53-2.82-15.94
		c-0.08-113.22-0.06-226.44-0.06-339.66c0-44.94-0.01-89.88,0.01-134.81c0-3.79-0.29-7.63,0.67-11.33
		C532.58,91.9,533.34,88.67,537.59,90.35z"/>
	<path class="st9" d="M341.35,95.84c0,166.88,0,333.75,0,500.63c-7.59,0-15.19,0-22.78,0.01c-4.08-4.75-2.82-10.53-2.83-15.93
		c-0.08-115.73-0.06-231.46-0.06-347.19c0-37.02-0.01-74.04,0.01-111.06c0-4.96-0.26-9.97,2.87-14.31
		C325.62,102.93,333.44,99.3,341.35,95.84z"/>
	<path class="st10" d="M556.84,596.42c0-163-0.01-325.99,0-488.99c0-2.91,0.09-5.83,0.14-8.75c8.72,3.68,17.2,7.74,23.97,14.62
		c1.35,4.82,1.54,9.74,1.54,14.71c-0.02,151.11,0,302.22-0.07,453.33c0,5.13,1.14,10.61-2.8,15.07
		C572.03,596.42,564.44,596.42,556.84,596.42z"/>
	<path class="st11" d="M765.44,128.46c7.76,3.35,16.2,5.24,22.91,10.81c0.93,3.12,0.91,6.32,0.91,9.54
		c-0.08,143.59-0.01,287.18-0.11,430.77c0,5.68,1.46,11.78-2.79,16.82c-7.59,0-15.18,0-22.78,0c-4.12-4.74-2.81-10.53-2.81-15.93
		c-0.08-130.97-0.06-261.95-0.06-392.92c0-14.88-0.17-29.75,0.1-44.63C760.91,137.73,760.81,132.29,765.44,128.46z"/>
	<path class="st12" d="M653.14,122.16c6.31-1.92,12.61-3.92,19.33-3.71c3.97,4.78,2.82,10.54,2.82,15.97
		c0.07,113.12,0.05,226.24,0.05,339.36c0,36.15,0.05,72.3-0.05,108.46c-0.01,4.85,0.96,10.02-2.81,14.18c-7.01,0-14.01,0-21.02,0
		c-4.12-4.75-2.81-10.54-2.81-15.95c-0.08-129.34-0.06-258.67-0.06-388.01c0-19.27-0.08-38.54,0.06-57.81
		C648.67,130.03,648.28,125.11,653.14,122.16z"/>
	<path class="st13" d="M365.87,596.46c0-161.22-0.01-322.43,0-483.65c0-8.71,0.38-17.44-1.77-26c6.52-3.79,13.76-5.27,21.05-6.59
		c4.13,4.74,2.79,10.54,2.8,15.94C388.03,211.48,388,326.8,388,442.11c0,46.71,0.04,93.42-0.05,140.13
		c-0.01,4.86,0.94,10.04-2.81,14.21C378.72,596.45,372.3,596.46,365.87,596.46z"/>
	<path class="st14" d="M243.14,188.37c6.26-13.58,13.71-26.37,24.52-36.94c4.24,4.69,2.89,10.5,2.9,15.89
		c0.08,119.65,0.06,239.29,0.06,358.94c0,19.26,0.06,38.52-0.04,57.78c-0.02,4.32,0.53,8.86-2.82,12.46
		c-7.59,0-15.18,0.01-22.77,0.01c-3.15-3.32-2.83-7.54-2.83-11.58c-0.08-128.42-0.02-256.83-0.07-385.25
		C242.08,195.86,242.94,192.15,243.14,188.37z"/>
	<path class="st15" d="M612.91,134.41c7.51-0.08,13.64-4.97,20.87-6.03c4.33,4.65,2.96,10.48,2.96,15.87
		c0.09,101.02,0.06,202.05,0.06,303.07c0,44.96,0.04,89.93-0.05,134.89c-0.01,4.85,0.96,10.04-2.82,14.2c-7.01,0-14.02,0-21.02,0
		c-4.12-4.75-2.82-10.54-2.82-15.95c-0.08-130.81-0.06-261.62-0.06-392.43c0-14.02-0.07-28.03,0.05-42.05
		C610.11,141.95,609.71,137.72,612.91,134.41z"/>
	<path class="st16" d="M828.38,170.96c9.51,9.75,17.66,20.41,22.56,33.29c-2.13,4.23-0.3,8.61-0.31,12.89
		c-0.14,121.11-0.09,242.21-0.17,363.32c0,5.4,1.31,11.19-2.79,15.95c-7.59,0-15.18,0-22.77,0c-3.22-3.29-2.82-7.53-2.82-11.55
		c-0.07-133.54-0.1-267.08,0.09-400.62C822.18,179.23,820.3,172.54,828.38,170.96z"/>
	<path class="st17" d="M243.14,188.37c2.54,3.98,1.81,8.45,1.81,12.78c0.03,131.79,0.03,263.58,0.03,395.37
		c-8.18,0-16.35,0.01-24.53,0.01c-3.34-3.6-2.82-8.14-2.83-12.46c-0.09-109.69,0.02-219.39-0.09-329.08c0-2.94,0.19-5.83,1.2-8.62
		c3.89-3.73,5.88-8.3,7.28-13.54C230.13,217.42,234.3,201.98,243.14,188.37z"/>
	<path class="st18" d="M689.99,116.74c6.42-0.56,12.85-2.34,19.27,0c3.99,4.78,2.81,10.54,2.82,15.96
		c0.07,114.28,0.05,228.56,0.05,342.84c0,35.57,0.05,71.13-0.05,106.7c-0.01,4.85,0.96,10.02-2.81,14.18c-6.42,0-12.85,0-19.27,0
		c-4.11-4.74-2.82-10.52-2.82-15.92c-0.08-121.57-0.06-243.14-0.06-364.71c0-28.57-0.04-57.14,0.04-85.71
		C687.17,125.47,686.52,120.64,689.99,116.74z"/>
	<path class="st19" d="M709.27,596.41c0-159.89,0-319.79,0-479.68c6.53-0.47,12.99-0.29,19.27,1.81c3.97,4.78,2.81,10.54,2.82,15.96
		c0.07,117.76,0.05,235.52,0.05,353.28c0,31.77,0.05,63.54-0.05,95.32c-0.01,4.57,0.78,9.44-2.82,13.3
		C722.12,596.41,715.69,596.41,709.27,596.41z"/>
	<path class="st20" d="M423.54,76.73c-4.35,2.67-3.36,6.99-3.36,10.97c-0.01,93.98-0.01,187.97-0.01,281.95
		c0,75.6,0.01,151.19,0.01,226.79c-5.84,0-11.68,0-17.52,0c-4.1-4.74-2.82-10.53-2.82-15.93c-0.08-106.43-0.06-212.85-0.06-319.28
		c0-55.98-0.03-111.97,0.05-167.95c0.01-5.15-1.01-10.61,2.83-15.08C409.56,76.85,416.49,75.92,423.54,76.73z"/>
	<path class="st21" d="M481.51,76.53c1.21-0.1,2.42-0.21,3.64-0.31c6.07,0.26,12.02,1.13,17.67,3.49
		c-0.83,7.55-0.96,15.13-0.96,22.73c0.03,159.06,0.04,318.11-0.05,477.17c0,5.68,1.45,11.78-2.79,16.83c-5.84,0-11.68,0-17.52,0
		C481.51,423.13,481.51,249.83,481.51,76.53z"/>
	<path class="st22" d="M402.66,78.2c0,172.75,0,345.5,0.01,518.25c-5.84,0-11.68,0.01-17.52,0.01c0-172.08,0-344.15,0-516.23
		C390.91,78.9,396.66,77.52,402.66,78.2z"/>
	<path class="st23" d="M499.02,596.43c0-168.87-0.02-337.73,0.1-506.6c0-3.52-2.52-8.6,3.69-10.12c4.84,0.18,9.45,1.28,13.77,3.51
		c3.82,4.83,2.78,10.57,2.78,16.01c0.06,99.75,0.04,199.5,0.04,299.25c0,60.96,0.03,121.92-0.05,182.88
		c-0.01,5.13,1.13,10.61-2.81,15.06C510.7,596.43,504.86,596.43,499.02,596.43z"/>
	<path class="st24" d="M516.54,596.42c0.01-171.07,0.03-342.14,0.04-513.21c7.33,1.43,14.44,3.46,21.01,7.13
		c-5.36,1.11-3.44,5.44-3.45,8.52c-0.15,23.36-0.08,46.72-0.08,70.08c0,142.49,0.01,284.98,0.01,427.47
		C528.23,596.42,522.39,596.42,516.54,596.42z"/>
	<path class="st25" d="M921.4,252.9c10.51,1.95,20.25,5.99,29.67,10.9c-2.49,6.1-2.47,12.5-2.47,18.94
		c0.03,99.24,0.04,198.47-0.04,297.71c0,5.4,1.32,11.2-2.77,15.96c-8.76,0-17.52,0-26.28,0c-3.22-3.29-2.82-7.54-2.82-11.57
		c-0.06-106.25-0.09-212.5,0.04-318.75C916.73,261.3,915.93,255.9,921.4,252.9z"/>
	<path class="st26" d="M267.76,596.5c-0.03-148.36-0.06-296.71-0.1-445.07c4.38-7.69,10.7-13.56,17.65-18.84
		c3.37,2.12,3.98,5.58,4.33,9.12c0.32,3.2,0.24,6.42,0.24,9.63c0.01,143.06,0.02,286.12-0.05,429.18c0,5.42,1.26,11.2-2.8,15.97
		C280.61,596.49,274.18,596.5,267.76,596.5z"/>
	<path class="st27" d="M786.36,596.41c0-149.1-0.01-298.2,0.05-447.3c0-3.32-1.35-7.09,1.94-9.84c6.9,3.14,13.4,6.86,18.56,12.57
		c1.37,4.81,1.6,9.72,1.6,14.7c-0.02,138.27-0.01,276.54-0.07,414.81c0,5.12,1.14,10.61-2.8,15.07
		C799.2,596.41,792.78,596.41,786.36,596.41z"/>
	<path class="st28" d="M805.63,596.41c0-145.09-0.01-290.18,0.04-435.26c0-3.11-1-6.45,1.24-9.31c8.48,4.89,15.41,11.52,21.48,19.13
		c-4.89,2.41-3.44,6.96-3.44,10.83c-0.06,90.68-0.05,181.36-0.04,272.04c0,47.53,0.01,95.05,0.01,142.58
		C818.48,596.41,812.05,596.41,805.63,596.41z"/>
	<path class="st29" d="M689.99,116.74c0,159.89,0,319.78,0.01,479.68c-5.84,0-11.68,0-17.52,0c0-159.32,0-318.64,0-477.96
		C678.18,116.56,684.05,116.28,689.99,116.74z"/>
	<path class="st30" d="M728.54,596.41c0-159.29,0-318.57,0-477.86c5.74,1.69,12.04,0.62,17.52,3.56c2.77,3.78,2.85,8.16,2.85,12.57
		c0.02,149.76,0.02,299.53-0.04,449.29c0,4.3,0.6,8.86-2.82,12.45C740.22,596.41,734.38,596.41,728.54,596.41z"/>
	<path class="st31" d="M287.03,596.49c0-149.75-0.02-299.51,0.03-449.26c0-4.99-0.19-9.88-1.75-14.64
		c5.96-5.77,12.16-11.25,19.24-15.64c4.13,4.75,2.79,10.55,2.79,15.95c0.08,130.23,0.06,260.45,0.06,390.68
		c0,20.15,0.06,40.29-0.04,60.44c-0.02,4.32,0.55,8.86-2.82,12.46C298.71,596.48,292.87,596.49,287.03,596.49z"/>
	<path class="st32" d="M746.06,596.41c0-158.1,0-316.2,0-474.31c6.59,1.72,13.49,2.5,19.38,6.35c-2.5,9.13-1.85,18.47-1.85,27.76
		c-0.01,146.73-0.01,293.46,0,440.19C757.74,596.41,751.9,596.41,746.06,596.41z"/>
	<path class="st33" d="M633.93,596.41c0-151.93,0-303.86-0.01-455.79c0-4.08-0.1-8.16-0.15-12.25c6.02-3.43,12.66-4.94,19.37-6.22
		c-2.27,3.42-1.69,7.3-1.69,11.05c-0.01,154.4,0,308.8,0,463.2C645.61,596.41,639.77,596.41,633.93,596.41z"/>
	<path class="st34" d="M612.91,134.41c0,154,0,308.01,0,462.01c-5.84,0-11.68,0-17.52,0c-4.11-4.74-2.82-10.53-2.82-15.93
		c-0.08-126.28-0.06-252.57-0.05-378.85c0-21.58-0.27-43.17,0.23-64.74c0.09-3.76-2.05-10.25,5.97-9.72
		C603.18,130.1,607.61,133.1,612.91,134.41z"/>
	<path class="st35" d="M123.99,272.44c8.11-5.51,17.04-9.21,26.38-12.02c3.27,3.27,2.8,7.53,2.8,11.54
		c0.08,104.34,0.07,208.69,0.01,313.03c0,4.04,0.29,8.25-2.81,11.58c-8.18,0-16.35,0.01-24.53,0.01
		c-4.02-4.78-2.81-10.55-2.81-15.98c-0.07-96.94-0.07-193.87,0-290.81C123.04,284.01,121.75,278.11,123.99,272.44z"/>
	<path class="st36" d="M598.71,127.17c-5.62,1.61-3.22,6.28-3.22,9.55c-0.15,68.59-0.11,137.18-0.11,205.77
		c0,84.64,0.01,169.29,0.01,253.93c-5.26,0-10.51,0-15.77,0c0-157.94-0.01-315.89,0.04-473.83c0-3.1-1.04-6.46,1.3-9.28
		C587.66,116.92,594.28,120.65,598.71,127.17z"/>
	<path class="st37" d="M945.79,596.41c0-107.72-0.02-215.45,0.07-323.17c0-3.77-2.4-9.57,5.21-9.44
		c7.67,2.33,14.84,5.71,21.46,10.25c-2.46,43.45-0.83,86.93-1.05,130.39c-0.31,58.96-0.04,117.92-0.13,176.89
		c-0.01,5.13,1.16,10.62-2.79,15.08C960.98,596.41,953.39,596.41,945.79,596.41z"/>
	<path class="st38" d="M863.16,239.34c1.65,10.41,4.43,12.28,17.71,11.87c3.34,3.24,2.9,7.49,2.91,11.51
		c0.08,107.37,0.08,214.75,0.01,322.12c0,4.03,0.4,8.27-2.81,11.56c-7.01,0-14.02,0-21.02,0c-3.01-3.02-2.8-6.94-2.8-10.69
		c-0.08-111.51-0.13-223.02,0.08-334.53C857.23,246.59,856.2,240.77,863.16,239.34z"/>
	<path class="st39" d="M880.97,596.41c-0.03-115.07-0.06-230.13-0.1-345.2c8.13-2.34,16.28-4.26,24.72-1.45
		c-0.81,9.31-0.77,18.64-0.77,27.97c0.02,100.91,0.03,201.83-0.05,302.74c0,5.4,1.31,11.19-2.78,15.94
		C894.98,596.41,887.98,596.41,880.97,596.41z"/>
	<path class="st40" d="M304.55,596.48c0-159.84,0.01-319.69,0.01-479.53c4.67-2.99,9.34-5.98,14-8.97c0,162.83,0,325.66,0.01,488.49
		C313.89,596.48,309.22,596.48,304.55,596.48z"/>
	<path class="st41" d="M123.99,272.44c2.38,3.69,1.84,7.84,1.84,11.9c0.01,104.08,0.01,208.16,0.02,312.24
		c-7.01,0-14.02,0.01-21.03,0.01c-4.01-4.78-2.8-10.55-2.81-15.98c-0.07-92.23-0.09-184.46,0.04-276.69
		c0.01-6.32-1.84-12.82,1.02-19.01C110.02,280.72,115.93,274.78,123.99,272.44z"/>
	<path class="st42" d="M150.37,596.56c0-112.05,0-224.1,0-336.15c6.13-2.83,12.57-4.57,19.26-5.38c3.29,3.27,2.81,7.53,2.81,11.53
		c0.08,106.13,0.08,212.27,0.01,318.4c0,4.04,0.3,8.25-2.81,11.58C163.22,596.56,156.8,596.56,150.37,596.56z"/>
	<path class="st43" d="M218.74,246.37c2.31,3.72,1.69,7.88,1.7,11.92c0.02,112.75,0.02,225.49,0.03,338.24
		c-5.84,0-11.68,0.01-17.53,0.01c-3.13-3.32-2.83-7.53-2.83-11.57c-0.06-107.84-0.06-215.69-0.01-323.53c0-4.06-0.2-8.24,2.83-11.59
		C207.79,246.85,213.87,249.37,218.74,246.37z"/>
	<path class="st44" d="M901.99,596.41c0-112.15-0.03-224.29,0.12-336.44c0-3.49-2.66-8.55,3.48-10.21
		c5.56-0.4,10.78,0.91,15.82,3.14c-2.25,3.71-1.9,7.83-1.9,11.9c0.01,110.53,0.01,221.07,0.01,331.6
		C913.67,596.41,907.83,596.41,901.99,596.41z"/>
	<path class="st45" d="M169.64,596.55c0-113.84-0.01-227.68-0.01-341.52c5.62-2.25,11.39-3.77,17.52-3.49
		c3,3.36,2.83,7.54,2.83,11.6c0.06,107.27,0.06,214.55-0.01,321.82c0,4.04,0.3,8.25-2.82,11.58
		C181.32,596.54,175.48,596.55,169.64,596.55z"/>
	<path class="st46" d="M984.67,281.16c6.25,3.52,12.68,6.79,17.62,12.21c-1.29,10.16-1.1,20.37-1.1,30.58
		c0.01,85.8,0.03,171.59-0.05,257.39c0,5.13,1.15,10.61-2.79,15.08c-5.84,0-11.68,0-17.52,0c-3.22-3.29-2.81-7.52-2.81-11.54
		c-0.06-95.54-0.14-191.08,0.13-286.62C978.17,292.11,976.55,284.55,984.67,281.16z"/>
	<path class="st47" d="M187.16,596.54c0-115-0.01-230-0.01-345c5.12-1.84,10.41-2.07,15.77-1.71c0,115.57,0,231.13,0.01,346.7
		C197.67,596.54,192.42,596.54,187.16,596.54z"/>
	<path class="st48" d="M54.01,596.62c0-81.3,0-162.59-0.02-243.89c0-4.05,0.56-8.2-1.8-11.9c4.47-9.14,9.43-17.93,17.48-24.51
		c4.24,0.14,4.93,3.5,5.75,6.56c0.83,3.12,0.68,6.36,0.68,9.56c0.03,83.61,0.03,167.23-0.02,250.84c0,4.59,0.65,9.42-2.81,13.33
		C66.86,596.61,60.43,596.62,54.01,596.62z"/>
	<path class="st49" d="M998.35,596.41c0-97.19-0.02-194.39,0.04-291.58c0-4.15-1.53-9.06,3.9-11.46c5.43,2.99,9.89,7.1,13.79,11.87
		c2.29,4.56,2.69,9.43,2.69,14.46c-0.03,87.8,0,175.6-0.07,263.41c0,4.57,0.78,9.44-2.82,13.31
		C1010.03,596.41,1004.19,596.41,998.35,596.41z"/>
	<path class="st50" d="M73.28,596.61c0-89.14,0-178.27-0.01-267.41c0-4.61,0.7-9.45-3.58-12.88c5.35-8.7,12.35-15.74,21.08-21.06
		c3.27,3.27,2.84,7.52,2.85,11.54c0.08,92.74,0.07,185.47,0.01,278.21c0,4.05,0.26,8.25-2.82,11.59
		C84.96,596.6,79.12,596.61,73.28,596.61z"/>
	<path class="st51" d="M1015.87,596.41c0.07-97.06,0.14-194.11,0.2-291.17c7.95,6.84,15.57,13.96,20.53,23.41
		c-0.71,6.37-0.35,12.77-0.36,19.16c-0.04,77.85,0,155.69-0.08,233.54c-0.01,5.12,1.16,10.6-2.78,15.06
		C1027.55,596.41,1021.71,596.41,1015.87,596.41z"/>
	<path class="st52" d="M863.16,239.34c-4.64,2.62-3.17,7.13-3.18,11c-0.06,115.36-0.04,230.71-0.04,346.07c-4.09,0-8.18,0-12.27,0
		c0-127.23-0.03-254.45,0.12-381.68c0-3.53-2.63-8.45,3.14-10.48C857.38,215.13,861.59,226.78,863.16,239.34z"/>
	<path class="st53" d="M90.8,596.6c-0.01-100.45-0.02-200.89-0.04-301.34c2.94-4.83,8.26-6.82,12.3-10.34
		c1.37,4.48,1.8,9.03,1.8,13.73c-0.07,99.31-0.05,198.63-0.05,297.94C100.14,596.59,95.47,596.6,90.8,596.6z"/>
	<path class="st54" d="M984.67,281.16c-3.95,5.19-3.84,11.28-3.84,17.35c0,99.3,0,198.6,0.01,297.9c-4.09,0-8.18,0-12.27,0
		c0-102.93-0.01-205.86,0.01-308.8c0-4.88-0.92-10.08,3.96-13.56C977.05,275.62,981.2,277.8,984.67,281.16z"/>
	<path class="st55" d="M1033.39,596.41c0-86.04-0.03-172.08,0.11-258.12c0.01-3.28-2.4-7.91,3.11-9.64
		c4.95,5.9,10.2,11.61,12.31,19.32c-2.67,3.02-1.45,6.69-1.45,10.05c-0.07,79.46-0.05,158.93-0.05,238.39
		C1042.74,596.41,1038.06,596.41,1033.39,596.41z"/>
</g>
<text transform="matrix(1 0 0 1 130.4068 865.7473)" class="st56 st57 st58">CLOUD</text>
<text transform="matrix(1 0 0 1 125.4005 1045.0298)" class="st56 st59 st60">PRESENT</text>
</svg>
